<svg width="25" height="29" viewBox="0 0 25 29" fill="none" xmlns="http://www.w3.org/2000/svg">
<path d="M16.1822 4.79058V3.84628C16.1496 1.76231 14.4564 0.0690918 12.3725 0.0690918C10.2885 0.0690918 8.59525 1.76231 8.5627 3.87884V4.79058C5.24137 6.28843 3.09229 9.60975 3.09229 13.2567V16.3501H21.6526V13.4195C21.6526 9.74 19.5035 6.38611 16.1822 4.79058Z" fill="white"/>
<path d="M22.536 17.9746H2.2173C0.979948 19.1794 0.296143 20.8075 0.296143 22.5658V23.3474C0.296143 23.9335 0.784576 24.3893 1.33813 24.3893H7.78539C8.37151 26.9291 10.8788 28.4921 13.4186 27.9386C15.177 27.5478 16.5771 26.1477 16.9679 24.3893H23.4151C24.0013 24.3893 24.4571 23.9009 24.4571 23.3474V22.5658C24.4897 20.8075 23.7733 19.1794 22.536 17.9746Z" fill="white"/>
</svg>
