<svg width="27" height="27" viewBox="0 0 27 27" fill="none" xmlns="http://www.w3.org/2000/svg">
<path d="M22.6433 9.56695V5.26195C22.6433 4.62029 22.1183 4.09529 21.4766 4.09529H17.1716L14.1383 1.06195C13.6833 0.606953 12.9483 0.606953 12.4933 1.06195L9.4483 4.09529H5.1433C4.50163 4.09529 3.97663 4.62029 3.97663 5.26195V9.56695L0.943301 12.6003C0.488301 13.0553 0.488301 13.7903 0.943301 14.2453L3.97663 17.2786V21.5953C3.97663 22.237 4.50163 22.762 5.1433 22.762H9.4483L12.4816 25.7953C12.9366 26.2503 13.6716 26.2503 14.1266 25.7953L17.16 22.762H21.4766C22.1183 22.762 22.6433 22.237 22.6433 21.5953V17.2903L25.6766 14.257C26.1316 13.802 26.1316 13.067 25.6766 12.612L22.6433 9.56695ZM13.31 20.4286C9.4483 20.4286 6.30997 17.2903 6.30997 13.4286C6.30997 9.56695 9.4483 6.42862 13.31 6.42862C17.1716 6.42862 20.31 9.56695 20.31 13.4286C20.31 17.2903 17.1716 20.4286 13.31 20.4286ZM13.31 8.76195C10.7316 8.76195 8.6433 10.8503 8.6433 13.4286C8.6433 16.007 10.7316 18.0953 13.31 18.0953C15.8883 18.0953 17.9766 16.007 17.9766 13.4286C17.9766 10.8503 15.8883 8.76195 13.31 8.76195Z" fill="#1F1F22"/>
</svg>
