<svg width="18" height="18" viewBox="0 0 18 18" fill="none" xmlns="http://www.w3.org/2000/svg">
<path fillRule="evenodd" clipRule="evenodd" d="M8.8604 0.0859375C4.06211 0.0859375 0.13623 4.01181 0.13623 8.8101C0.13623 13.6084 4.06211 17.5343 8.8604 17.5343C13.6587 17.5343 17.5846 13.6084 17.5846 8.8101C17.5846 4.01181 13.6587 0.0859375 8.8604 0.0859375ZM11.2595 8.15579C11.2595 8.15579 11.0414 7.50148 10.9324 7.28338C12.7863 6.41096 13.9858 5.42949 14.4221 4.88423C15.1854 5.8657 15.6216 7.06527 15.7307 8.3739C14.8583 8.15579 12.8953 7.82864 11.2595 8.15579ZM10.06 5.64759C9.18755 4.12086 8.20609 2.81224 7.76988 2.04887C9.84187 1.50361 11.6958 2.15793 13.1134 3.46655C12.6772 4.01181 11.8048 4.88423 10.06 5.64759ZM5.69789 2.81224C6.1341 3.3575 7.00651 4.66612 7.87893 6.30191C5.47978 6.84717 3.29874 6.95622 2.31727 6.95622C2.75348 5.21139 4.06211 3.68466 5.69789 2.81224ZM8.8604 8.04674C8.96945 8.26484 9.0785 8.48295 9.18755 8.592C6.1341 9.57347 4.17116 12.0817 3.51684 13.0631C2.64443 11.8636 2.09917 10.4459 2.09917 9.02821C3.08064 8.91916 5.91599 8.8101 8.8604 8.04674ZM9.95092 10.4459C10.7143 12.6269 11.1505 14.3718 11.2595 15.2442C8.96945 16.0075 6.3522 15.5713 4.93452 14.3718C5.37073 13.6084 6.78841 11.6455 9.95092 10.4459ZM13.1134 14.1537C12.8953 13.2812 12.5682 11.7545 11.9139 9.90063C13.1134 9.68252 14.8583 9.90063 15.5126 10.1187C15.1854 11.7545 14.313 13.1722 13.1134 14.1537Z" fill="#EB5091"/>
</svg>
