<svg width="31" height="24" viewBox="0 0 31 24" fill="none" xmlns="http://www.w3.org/2000/svg">
<path fillRule="evenodd" clipRule="evenodd" d="M27.7368 0H3.26316C1.30115 0 0 1.34312 0 3.31034V20.6897C0 22.6569 1.30115 24 3.26316 24H27.7368C29.6988 24 31 22.6569 31 20.6897V3.31034C31 1.34312 29.6988 0 27.7368 0ZM28.5526 3.31034V5.7931L28.309 5.98631C26.9314 7.0787 24.7506 8.80799 20.3947 12.4138C20.0403 12.6115 19.5738 12.9621 19.0726 13.3386C18.0923 14.0752 16.9797 14.9112 16.3158 14.8966C14.9722 14.9131 13.5141 13.8691 12.4216 13.0869C12.0353 12.8103 11.6947 12.5664 11.4211 12.4138C7.06876 8.81088 4.8875 7.08119 3.50953 5.9885L3.50952 5.98849L3.26316 5.7931V3.31034H28.5526ZM3.26316 9.10345V20.6897H28.5526V9.10345C27.1596 10.2429 25.1836 11.8421 22.0263 14.069C20.8022 15.371 18.5047 17.7076 16.3158 17.3793C13.2982 17.7076 10.9713 15.3366 9.78947 14.069C6.63158 11.8415 4.65615 10.2428 3.26316 9.10345Z" fill="white"/>
</svg>
