<svg width="27" height="26" viewBox="0 0 27 26" fill="none" xmlns="http://www.w3.org/2000/svg">
<path d="M25.7308 11.926L22.6975 8.89264V4.58764C22.6975 3.94597 22.1725 3.42097 21.5308 3.42097H17.2258L14.1925 0.387637C13.7375 -0.0673633 13.0025 -0.0673633 12.5475 0.387637L9.5025 3.42097H5.1975C4.55583 3.42097 4.03083 3.94597 4.03083 4.58764V8.89264L0.9975 11.926C0.5425 12.381 0.5425 13.116 0.9975 13.571L4.03083 16.6043V20.921C4.03083 21.5626 4.55583 22.0876 5.1975 22.0876H9.5025L12.5358 25.121C12.9908 25.576 13.7258 25.576 14.1808 25.121L17.2142 22.0876H21.5308C22.1725 22.0876 22.6975 21.5626 22.6975 20.921V16.616L25.7308 13.5826C26.1858 13.1276 26.1858 12.381 25.7308 11.926ZM20.2708 13.8976C19.8742 16.371 18.1125 18.4943 15.7442 19.3343C14.3325 19.836 12.9325 19.8593 11.6608 19.5443C11.1825 19.4276 11.1008 18.786 11.5092 18.4943C13.3408 17.2343 14.5308 15.1343 14.5308 12.7543C14.5308 10.3743 13.3408 8.2743 11.5208 7.0143C11.1125 6.7343 11.1825 6.09264 11.6725 5.9643C12.9442 5.6493 14.3442 5.67264 15.7558 6.1743C18.1125 7.0143 19.8858 9.13764 20.2825 11.611C20.3408 11.996 20.3642 12.381 20.3642 12.7543C20.3525 13.1276 20.3292 13.5126 20.2708 13.8976Z" fill="white"/>
</svg>
