<svg width="25" height="25" viewBox="0 0 25 25" fill="none" xmlns="http://www.w3.org/2000/svg">
<path fillRule="evenodd" clipRule="evenodd" d="M18.6842 1.00009L23.1053 2.26325C24.3157 2.2981 25 3.16079 25 4.15799C25 15.7074 15.64 25.0048 4.15792 25.0001C3.15844 25.0001 2.29603 24.3156 2.26318 23.1054L1.00003 18.6843C0.824299 17.9063 1.34456 16.8748 2.26318 16.158L7.31582 14.2633C7.93453 14.0523 8.96568 14.3055 9.84213 14.8948L11.1053 16.7896C13.5543 15.5808 15.5791 13.5553 16.7895 11.1054L14.8948 9.8422C14.3089 8.96523 14.0558 7.93374 14.2632 7.31588L16.1579 2.26325C16.8774 1.34632 17.9085 0.821202 18.6842 1.00009ZM3.52634 18.6843L4.7895 23.1054C14.7621 23.0582 23.0582 14.7622 23.1053 4.78957L18.6842 3.52641L16.7895 7.94746L19.9474 10.4738C17.8714 15.4405 15.4311 17.8714 10.4737 19.9475L7.94739 16.7896L3.52634 18.6843Z" fill="white"/>
</svg>
