<svg width="35" height="27" viewBox="0 0 35 27" fill="none" xmlns="http://www.w3.org/2000/svg">
<path fillRule="evenodd" clipRule="evenodd" d="M21.5633 26.4424C19.7562 22.9488 18.8527 19.1541 18.8527 15.0582C18.8527 10.902 19.952 7.46869 22.1505 4.75816C24.3491 2.04764 27.7674 0.692373 32.4054 0.692373V6.38448C30.779 6.38448 29.5894 6.74589 28.8365 7.46869C28.0836 8.1915 27.7071 9.57688 27.7071 11.6248V12.5283H34.3027V26.4424H21.5633ZM2.85981 26.4424C1.05279 22.9488 0.149277 19.1541 0.149277 15.0582C0.149277 10.902 1.24855 7.46869 3.44709 4.75816C5.64563 2.04764 9.0639 0.692373 13.7019 0.692373V6.38448C12.0756 6.38448 10.886 6.74589 10.1331 7.46869C9.38013 8.1915 9.00367 9.57688 9.00367 11.6248L9.00367 12.5283L15.5993 12.5283V26.4424H2.85981Z" fill="white"/>
</svg>
