<svg width="139" height="22" viewBox="0 0 139 22" fill="none" xmlns="http://www.w3.org/2000/svg">
<path fillRule="evenodd" clipRule="evenodd" d="M7.58671 6.89105L10.9266 0L14.2665 6.89196L21.8532 7.93909L16.3316 13.2449L17.6792 20.7833L10.9266 17.1721L4.17396 20.7842L5.52158 13.2458L0 7.93909L7.58671 6.89105ZM13.0522 8.56185L10.926 4.17573L8.7999 8.56185L3.96943 9.22928L7.48507 12.6074L6.62733 17.406L10.926 15.1069L15.2247 17.4051L14.367 12.6065L17.8826 9.22837L13.0522 8.56185Z" fill="url(#paint0_linear_4_5421)"/>
<path fillRule="evenodd" clipRule="evenodd" d="M36.5867 6.89105L39.9266 0L43.2665 6.89196L50.8532 7.93909L45.3316 13.2449L46.6792 20.7833L39.9266 17.1721L33.174 20.7842L34.5216 13.2458L29 7.93909L36.5867 6.89105ZM42.0522 8.56185L39.926 4.17573L37.7999 8.56185L32.9694 9.22928L36.4851 12.6074L35.6273 17.406L39.926 15.1069L44.2247 17.4051L43.367 12.6065L46.8826 9.22837L42.0522 8.56185Z" fill="url(#paint1_linear_4_5421)"/>
<path fillRule="evenodd" clipRule="evenodd" d="M94.5867 6.89105L97.9266 0L101.267 6.89196L108.853 7.93909L103.332 13.2449L104.679 20.7833L97.9266 17.1721L91.174 20.7842L92.5216 13.2458L87 7.93909L94.5867 6.89105ZM100.052 8.56185L97.926 4.17573L95.7999 8.56185L90.9694 9.22928L94.4851 12.6074L93.6273 17.406L97.926 15.1069L102.225 17.4051L101.367 12.6065L104.883 9.22837L100.052 8.56185Z" fill="url(#paint2_linear_4_5421)"/>
<path fillRule="evenodd" clipRule="evenodd" d="M65.5867 6.89105L68.9266 0L72.2665 6.89196L79.8532 7.93909L74.3316 13.2449L75.6792 20.7833L68.9266 17.1721L62.174 20.7842L63.5216 13.2458L58 7.93909L65.5867 6.89105ZM71.0522 8.56185L68.926 4.17573L66.7999 8.56185L61.9694 9.22928L65.4851 12.6074L64.6273 17.406L68.926 15.1069L73.2247 17.4051L72.367 12.6065L75.8826 9.22837L71.0522 8.56185Z" fill="url(#paint3_linear_4_5421)"/>
<path fillRule="evenodd" clipRule="evenodd" d="M124.142 7.33758L127.482 0.446533L130.822 7.33849L138.409 8.38562L132.887 13.6914L134.235 21.2298L127.482 17.6186L120.729 21.2308L122.077 13.6923L116.555 8.38562L124.142 7.33758ZM129.608 9.00838L127.481 4.62226L125.355 9.00838L120.525 9.67582L124.04 13.054L123.183 17.8526L127.481 15.5534L131.78 17.8516L130.922 13.053L134.438 9.67491L129.608 9.00838Z" fill="url(#paint4_linear_4_5421)"/>
<defs>
<linearGradient id="paint0_linear_4_5421" x1="-10.0178" y1="-19.0556" x2="-10.0178" y2="20.7842" gradientUnits="userSpaceOnUse">
<stop stop-color="#7F95AE"/>
<stop offset="1" stop-color="#E5E9EF"/>
</linearGradient>
<linearGradient id="paint1_linear_4_5421" x1="18.9822" y1="-19.0556" x2="18.9822" y2="20.7842" gradientUnits="userSpaceOnUse">
<stop stop-color="#7F95AE"/>
<stop offset="1" stop-color="#E5E9EF"/>
</linearGradient>
<linearGradient id="paint2_linear_4_5421" x1="76.9822" y1="-19.0556" x2="76.9822" y2="20.7842" gradientUnits="userSpaceOnUse">
<stop stop-color="#7F95AE"/>
<stop offset="1" stop-color="#E5E9EF"/>
</linearGradient>
<linearGradient id="paint3_linear_4_5421" x1="47.9822" y1="-19.0556" x2="47.9822" y2="20.7842" gradientUnits="userSpaceOnUse">
<stop stop-color="#7F95AE"/>
<stop offset="1" stop-color="#E5E9EF"/>
</linearGradient>
<linearGradient id="paint4_linear_4_5421" x1="106.538" y1="-18.6091" x2="106.538" y2="21.2308" gradientUnits="userSpaceOnUse">
<stop stop-color="#7F95AE"/>
<stop offset="1" stop-color="#E5E9EF"/>
</linearGradient>
</defs>
</svg>
