<svg width="139" height="22" viewBox="0 0 139 22" fill="none" xmlns="http://www.w3.org/2000/svg">
<path d="M98.3434 0.445312L101.683 7.33636L109.27 8.3844L103.748 13.6911L105.096 21.2295L98.3434 17.6174L91.5898 21.2295L92.9383 13.6911L87.4167 8.3844L95.0035 7.33636L98.3434 0.445312Z" fill="#FFC32B"/>
<path d="M127.927 1L131.267 7.89105L138.853 8.93909L133.332 14.2458L134.679 21.7842L127.927 18.1721L121.173 21.7842L122.522 14.2458L117 8.93909L124.587 7.89105L127.927 1Z" fill="#FFC32B"/>
<path d="M69.2057 0.445312L72.5456 7.33636L80.1323 8.3844L74.6107 13.6911L75.9584 21.2295L69.2057 17.6174L62.4522 21.2295L63.8007 13.6911L58.2791 8.3844L65.8658 7.33636L69.2057 0.445312Z" fill="#FFC32B"/>
<path d="M40.0681 0.445312L43.408 7.33636L50.9948 8.3844L45.4732 13.6911L46.8208 21.2295L40.0681 17.6174L33.3146 21.2295L34.6631 13.6911L29.1415 8.3844L36.7282 7.33636L40.0681 0.445312Z" fill="#FFC32B"/>
<path d="M10.9305 0.445312L14.2704 7.33636L21.8571 8.3844L16.3355 13.6911L17.6832 21.2295L10.9305 17.6174L4.17696 21.2295L5.52548 13.6911L0.00390625 8.3844L7.59061 7.33636L10.9305 0.445312Z" fill="#FFC32B"/>
</svg>
