<svg width="19" height="15" viewBox="0 0 19 15" fill="none" xmlns="http://www.w3.org/2000/svg">
<path d="M18.0599 1.90238C17.4056 2.22954 16.7513 2.33859 15.9879 2.44764C16.7513 2.01143 17.2965 1.35712 17.5146 0.484706C16.8603 0.920914 16.097 1.13902 15.2246 1.35712C14.5702 0.70281 13.5888 0.266602 12.6073 0.266602C10.7534 0.266602 9.11763 1.90238 9.11763 3.86532C9.11763 4.19248 9.11763 4.41058 9.22669 4.62868C6.28228 4.51963 3.55598 3.10196 1.81115 0.920914C1.48399 1.46617 1.37494 2.01143 1.37494 2.7748C1.37494 3.97437 2.02925 5.06489 3.01072 5.71921C2.46546 5.71921 1.9202 5.5011 1.37494 5.283C1.37494 7.02783 2.57451 8.44551 4.21029 8.77266C3.88313 8.88172 3.55598 8.88172 3.22882 8.88172C3.01072 8.88172 2.79261 8.88172 2.57451 8.77266C3.01072 10.1903 4.31934 11.2809 5.95512 11.2809C4.75555 12.2623 3.22882 12.8076 1.48399 12.8076C1.15683 12.8076 0.938729 12.8076 0.611572 12.8076C2.24735 13.7891 4.10124 14.4434 6.06418 14.4434C12.6073 14.4434 16.206 8.99077 16.206 4.30153C16.206 4.19248 16.206 3.97437 16.206 3.86532C16.9694 3.32006 17.6237 2.66575 18.0599 1.90238Z" fill="#31A8FF"/>
</svg>
